<?xml version="1.0" standalone="no"?>
<!DOCTYPE svg PUBLIC "-//W3C//DTD SVG 20010904//EN"
 "http://www.w3.org/TR/2001/REC-SVG-20010904/DTD/svg10.dtd">
<svg version="1.0" xmlns="http://www.w3.org/2000/svg"
 width="16.000000pt" height="16.000000pt" viewBox="0 0 16.000000 16.000000"
 preserveAspectRatio="xMidYMid meet">
<metadata>
Created by potrace 1.11, written by Peter Selinger 2001-2013
</metadata>
<g transform="translate(0.000000,16.000000) scale(0.001852,-0.001852)"
fill="#000000" stroke="none">
<path d="M70 7893 c0 -410 2 -744 4 -742 2 2 44 68 94 146 50 78 114 172 142
210 418 553 1071 942 1850 1104 l135 28 -1112 0 -1113 1 0 -747z"/>
<path d="M5215 7263 c23 -4653 17 -4302 80 -4693 76 -471 146 -728 279 -1020
362 -796 1050 -1306 2006 -1489 221 -42 382 -55 682 -56 157 0 288 2 291 5 6
6 10 957 8 1918 l-1 752 -47 0 c-151 0 -374 49 -498 109 -210 101 -340 263
-396 496 -22 94 -30 272 -16 348 l8 37 474 0 475 0 0 1320 0 1320 -462 2 -463
3 -3 1158 -2 1157 -1211 0 -1211 0 7 -1367z"/>
<path d="M2940 8394 c-539 -46 -846 -131 -1115 -309 -310 -205 -493 -498 -571
-916 -22 -114 -30 -447 -15 -591 40 -384 189 -705 459 -989 171 -180 290 -264
707 -499 506 -286 1530 -883 1630 -951 55 -37 132 -93 170 -124 85 -67 265
-244 320 -314 22 -27 43 -50 48 -51 9 0 9 5 -8 2045 -8 952 -15 1900 -15 2107
l0 377 -97 31 c-231 71 -551 135 -824 165 -135 15 -590 28 -689 19z"/>
<path d="M120 2906 c0 -2510 1 -2645 17 -2650 35 -10 491 -75 643 -91 209 -23
644 -31 791 -16 259 27 460 86 714 211 568 278 1008 762 1141 1255 62 230 86
434 73 609 -36 490 -327 954 -834 1331 -132 98 -157 114 -490 315 -919 555
-1503 1020 -1933 1543 -62 75 -115 137 -118 137 -2 0 -4 -1190 -4 -2644z"/>
<path d="M4574 1489 c-6 -8 -38 -57 -70 -109 -357 -583 -915 -1007 -1623
-1234 -119 -38 -212 -62 -466 -120 -52 -12 85 -14 1045 -15 608 0 1111 3 1118
7 10 7 12 163 10 747 -2 548 -6 734 -14 724z"/>
</g>
</svg>
